<svg height="91" width="91" xml:space="preserve" xmlns="http://www.w3.org/2000/svg"><path d="M68.561 37.856c0-4.514 1.76-8.611 4.613-11.674-8.684-3.938-19.766-2.08-23.922.912-2.994 2.018-6.344 0-6.344 0-7.213-5.193-35.301-7-35.477 19.037-.173 24.807 15.079 37.39 20.557 41.139 5.482 3.748 14.92-1.621 14.92-1.621s2.566-1.684 6.344 0c0 0 9.436 5.369 14.918 1.621 4.791-3.273 17.047-13.311 19.939-32.354-8.72-.799-15.548-8.129-15.548-17.06z" fill="#F16A6D"/><path d="M33.338 2.403c-3.473 4.363-4.379 10.48-1.76 15.809 2.627 5.334 8.025 8.35 13.598 8.262 3.475-4.359 4.373-10.475 1.754-15.811-2.619-5.334-8.018-8.35-13.592-8.26z" fill="#ACD263"/><path d="M84.316 52.656c-7.689-.703-13.488-7.067-13.488-14.8 0-3.76 1.422-7.355 4.006-10.129l2.15-2.309-2.873-1.303c-3.527-1.6-7.703-2.443-12.076-2.443-4.908 0-9.804 1.1-12.922 2.833 1.502-3.707 4.691-8.896 10.969-9.881l-.703-4.48c-3.767.591-6.671 2.237-8.905 4.292a16.883 16.883 0 0 0-1.507-4.772C46.078 3.785 40.182.135 33.578.135L32.23.151l-.666.84c-4.123 5.18-4.916 12.334-2.021 18.223.431.875.936 1.694 1.492 2.466a32.266 32.266 0 0 0-.934-.015c-11.977 0-24.816 6.424-24.938 24.451C4.984 71.523 20.17 84.67 26.709 89.143c1.674 1.145 3.725 1.725 6.096 1.725 5.455 0 10.992-3.115 11.305-3.295.027-.018.699-.404 1.818-.404.744 0 1.523.172 2.314.514.846.465 6.016 3.184 11.111 3.186 2.371 0 4.422-.58 6.096-1.725 5.285-3.611 17.904-14.145 20.902-33.887l.361-2.379-2.396-.222zM33.613 17.212c-1.996-4.063-1.652-8.764.854-12.514 4.496.307 8.439 2.916 10.428 6.965 1.998 4.072 1.658 8.773-.846 12.514a12.805 12.805 0 0 1-2.89-.552 22.67 22.67 0 0 0-1.142-.421 12.43 12.43 0 0 1-6.404-5.992zm29.276 68.186c-.904.619-2.094.932-3.535.932-4.236 0-8.936-2.629-8.98-2.654l-.199-.1c-1.406-.627-2.834-.945-4.246-.945-2.254 0-3.746.801-4.18 1.068-1.34.754-5.436 2.631-8.943 2.631-1.439 0-2.631-.313-3.535-.932C23.33 81.336 9.537 69.377 9.699 46.147 9.82 28.146 24.008 26.2 30.102 26.2c3.122 0 5.921.497 8.071 1.175.521.22 1.054.413 1.598.582.745.317 1.358.65 1.813.978l.154.102c.129.078.91.531 2.067.863-3.16 1.98-6.474.994-6.976.822a2.266 2.266 0 0 0-2.885 1.381 2.266 2.266 0 0 0 1.375 2.896c1.053.375 2.482.658 4.09.658 3.725 0 8.397-1.532 11.526-6.946 2.027-1.28 6.092-2.503 11.099-2.503 2.625 0 5.15.35 7.441 1.021a19.287 19.287 0 0 0-3.184 10.627c0 9.263 6.375 17.019 15.186 18.944-3.291 16.552-13.993 25.458-18.588 28.598z" fill="#434B56"/><path d="M19.395 59.713c-.84 0-1.648-.471-2.041-1.277-2.471-5.076-3.002-16.446 1.355-21.155a2.268 2.268 0 1 1 3.328 3.082c-2.617 2.826-2.594 12.003-.605 16.089a2.265 2.265 0 0 1-1.047 3.031c-.319.156-.656.23-.99.23zM21.887 66.713a2.271 2.271 0 0 1-1.609-3.872c.85-.85 2.359-.85 3.211 0 .42.42.67 1 .67 1.602 0 .6-.25 1.18-.67 1.6a2.26 2.26 0 0 1-1.602.67z" fill="#FFF"/></svg>